<svg width="20" height="20" viewBox="0 0 20 20" fill="none" xmlns="http://www.w3.org/2000/svg">
<path fill-rule="evenodd" clip-rule="evenodd" d="M3 1C1.89543 1 1 1.89543 1 3V7.5H3V3H8V1H3ZM1 17V11.5H3L3 17H8V19H3C1.89543 19 1 18.1046 1 17ZM12 17V19H17C18.1046 19 19 18.1046 19 17V11.5H17V17H12ZM17 7.5H19V3C19 1.89543 18.1046 1 17 1H12V3H17V7.5Z" fill="black"/>
<rect x="6" y="5" width="8" height="1" fill="black"/>
<rect x="5" y="8" width="10" height="1" fill="black"/>
<rect x="6" y="11" width="8" height="1" fill="black"/>
<rect x="5" y="14" width="10" height="1" fill="black"/>
</svg>
