<?xml version="1.0" encoding="UTF-8"?>
<svg xmlns="http://www.w3.org/2000/svg" width="296" height="148" fill="none" viewBox="0 0 296 148">
	<path fill="#fff" d="M0 0h296v148H0z"/>
	<g filter="url(#filter0_d)">
		<path fill="#000" d="m10.386 73.482.167-43.92a1.004 1.004 0 0 1 1.005-1h55.346v8.255a1 1 0 0 0 .997 1h8.156v79.771c0 .553-.271.647-.636.235 0 0-.762-1.26-2.234-1.26s-1.338 1.159-2.638 1.521c-1.301.362-1.303-1.521-2.697-1.521-1.394 0-1.47 1.521-2.795 1.521-1.327 0-1.24-1.521-2.69-1.521s-1.59 1.521-2.863 1.521-1.235-1.521-2.725-1.521-1.484 1.521-2.802 1.521-1.226-1.521-2.62-1.521c-1.394 0-1.34 1.16-2.688 1.521-1.346.361-1.586-1.521-2.933-1.521-1.346 0-1.446 1.521-2.744 1.521-1.297 0-1.089-1.521-2.528-1.521-1.44 0-1.6 1.521-2.946 1.521s-1.462-1.521-2.862-1.521c-1.401 0-1.25 1.521-2.631 1.521-1.381 0-1.432-1.521-2.806-1.521s-1.353 1.521-2.705 1.521-1.29-1.521-2.74-1.521c-1.452 0-1.506 1.521-2.866 1.521-1.359 0-1.24-1.521-2.428-1.521s-1.684 1.927-2.98 1.521c-1.298-.406-1.148-1.521-2.597-1.521a2.143 2.143 0 0 0-1.96 1.201c-.308.455-.557.374-.557-.174V73.482Z"/>
	</g>
	<path fill="#fff" stroke="#A2A9B1" stroke-linecap="round" d="m10.386 73.482.167-43.92a1.004 1.004 0 0 1 1.005-1h55.346v8.255a1 1 0 0 0 .997 1h8.156v79.771c0 .553-.271.647-.636.234 0 0-.762-1.259-2.234-1.259s-1.338 1.159-2.638 1.521c-1.301.362-1.303-1.521-2.697-1.521-1.394 0-1.47 1.521-2.795 1.521-1.327 0-1.24-1.521-2.69-1.521s-1.59 1.521-2.863 1.521-1.235-1.521-2.725-1.521-1.484 1.521-2.802 1.521-1.226-1.521-2.62-1.521c-1.394 0-1.34 1.16-2.688 1.521-1.346.361-1.586-1.521-2.933-1.521-1.346 0-1.446 1.521-2.744 1.521-1.297 0-1.089-1.521-2.528-1.521-1.44 0-1.6 1.521-2.946 1.521s-1.462-1.521-2.862-1.521c-1.401 0-1.25 1.521-2.631 1.521-1.381 0-1.432-1.521-2.806-1.521s-1.353 1.521-2.705 1.521-1.29-1.521-2.74-1.521c-1.452 0-1.506 1.521-2.866 1.521-1.359 0-1.24-1.521-2.428-1.521s-1.684 1.927-2.98 1.521c-1.298-.406-1.148-1.521-2.597-1.521a2.143 2.143 0 0 0-1.96 1.201c-.308.455-.557.374-.557-.174V73.482h0Z"/>
	<path fill="#C8CCD1" fill-rule="evenodd" stroke="#A2A9B1" d="M67.41 38.065h8.06c.038 0 .052-.001.093.002v-.002c.273 0 .5-.236.5-.537a.544.544 0 0 0-.217-.443l-.064-.056-8.024-8.317a.476.476 0 0 0-.534-.112.54.54 0 0 0-.315.499v8.43c0 .3.228.536.501.536Z" clip-rule="evenodd"/>
	<g opacity=".35">
		<path fill="#A2A9B1" d="M20.01 44.568c2.51 0 4.544-2.015 4.544-4.502 0-2.486-2.034-4.502-4.544-4.502s-4.543 2.016-4.543 4.502c0 2.486 2.034 4.502 4.543 4.502Z"/>
		<path fill="#A2A9B1" fill-rule="evenodd" d="M54.017 46.069s10.952 7.377 13.417 4.663c2.464-2.715 0 3.94 0 3.94H45.808M10.922 50.07s8.729 6.097 20.893 6.097c12.164 0 2.976 3.907 2.976 3.907H10.948" clip-rule="evenodd"/>
		<path fill="#C8CCD1" fill-rule="evenodd" d="M12.309 60.133s47.81-22.793 41.819-11.321c-5.99 11.472 21.457-2.694 21.457-2.694v14.015" clip-rule="evenodd"/>
	</g>
	<path fill="#F5F5F5" fill-rule="evenodd" d="M10.922 59.574H75.5v1H10.922v-1Z" clip-rule="evenodd"/>
	<path fill="#36C" d="M52.44 69.078H16.925a.5.5 0 0 0 0 1H52.44a.5.5 0 0 0 0-1Zm4.001 12.005H16.925a.5.5 0 0 0 0 1H56.44a.5.5 0 0 0 0-1Zm-24.51 27.011H16.925a.5.5 0 0 0 0 1.001H31.93a.5.5 0 1 0 0-1.001Zm38.016 0H34.432a.5.5 0 0 0 0 1.001h35.515a.5.5 0 1 0 0-1.001ZM24.428 88.086h-7.503a.5.5 0 0 0 0 1h7.503a.5.5 0 0 0 0-1Zm45.519 0h-7.503a.5.5 0 0 0 0 1h7.503a.5.5 0 0 0 0-1Zm-10.004 0H26.929a.5.5 0 0 0 0 1h33.014a.5.5 0 0 0 0-1Zm-35.515 16.507h-7.503a.5.5 0 1 0 0 1h7.503a.5.5 0 0 0 0-1Zm46.019 0H52.94a.5.5 0 1 0 0 1h17.507a.5.5 0 0 0 0-1Zm-20.008 0h-23.51a.5.5 0 1 0 0 1h23.51a.5.5 0 1 0 0-1Zm8.503-23.51h11.005a.5.5 0 0 1 0 1H58.942a.5.5 0 0 1 0-1ZM56.441 98.59H16.925a.5.5 0 0 0 0 1H56.44a.5.5 0 0 0 0-1Zm-6.503-21.008h-6.002a.5.5 0 1 0 0 1h6.002a.5.5 0 1 0 0-1Zm20.009 0H52.44a.5.5 0 1 0 0 1h17.507a.5.5 0 1 0 0-1Zm-28.512 0h-24.51a.5.5 0 1 0 0 1h24.51a.5.5 0 0 0 0-1ZM69.947 95.09H16.925a.5.5 0 1 0 0 1h53.022a.5.5 0 0 0 0-1Zm0-3.502H16.925a.5.5 0 1 0 0 1h53.022a.5.5 0 0 0 0-1Zm0 20.008H16.925a.5.5 0 1 0 0 1h53.022a.5.5 0 1 0 0-1Zm0-27.011H16.925a.5.5 0 1 0 0 1h53.022a.5.5 0 1 0 0-1ZM41.435 65.577h-24.51a.5.5 0 0 0 0 1h24.51a.5.5 0 0 0 0-1Zm179.895-6.53h-45.852a.646.646 0 1 0 0 1.292h45.852a.646.646 0 1 0 0-1.292Zm5.166 15.499h-51.018a.646.646 0 1 0 0 1.292h51.018a.646.646 0 1 0 0-1.292Zm-41.331 9.041h-9.687a.646.646 0 1 0 0 1.292h9.687a.646.646 0 1 0 0-1.292Zm58.768 0h-9.687a.646.646 0 1 0 0 1.292h9.687a.646.646 0 1 0 0-1.292Zm-12.916 0h-42.623a.646.646 0 1 0 0 1.292h42.623a.646.646 0 1 0 0-1.292Zm-45.852 21.312h-9.687a.646.646 0 1 0 0 1.291h9.687a.646.646 0 1 0 0-1.291Zm59.414 0h-22.603a.646.646 0 1 0 0 1.291h22.603a.645.645 0 0 0 0-1.291Zm-25.832 0h-30.353a.646.646 0 1 0 0 1.291h30.353a.646.646 0 0 0 0-1.291Zm10.978-30.353h14.208a.646.646 0 0 1 0 1.292h-14.208a.646.646 0 0 1 0-1.292Zm-3.229 22.604h-51.018a.646.646 0 1 0 0 1.29h51.018a.646.646 0 1 0 0-1.29Zm-8.395-27.125h-7.75a.646.646 0 0 0 0 1.292h7.75a.646.646 0 1 0 0-1.291Zm25.832 0H221.33a.646.646 0 1 0 0 1.292h22.603a.646.646 0 1 0 0-1.291Zm-36.811 0h-31.644a.646.646 0 1 0 0 1.292h31.644a.646.646 0 1 0 0-1.291Zm36.811 22.604h-68.455a.646.646 0 1 0 0 1.291h68.455a.646.646 0 1 0 0-1.291Zm0-4.521h-68.455a.646.646 0 1 0 0 1.292h68.455a.646.646 0 1 0 0-1.292Zm0-9.041h-68.455a.646.646 0 1 0 0 1.291h68.455a.646.646 0 1 0 0-1.291Zm-36.81-24.541h-31.645a.646.646 0 0 0 0 1.292h31.645a.646.646 0 0 0 0-1.292Zm-78.32 24.076a1 1 0 0 0 0-1.414l-6.364-6.364a1 1 0 1 0-1.414 1.414l5.656 5.657-5.656 5.657a1 1 0 1 0 1.414 1.414l6.364-6.364Zm-31.865.293h31.158v-2H96.938v2Z"/>
	<rect width="121.035" height="79.491" x="149.367" y="32.956" stroke="#A2A9B1" rx="3.5"/>
	<rect width="113.246" height="71.702" x="153.262" y="36.851" stroke="#A2A9B1" rx="3.5"/>
	<path stroke="#A2A9B1" d="M133.289 115.544c.563.865 2.703 2.596 6.758 2.596h141.084c1.126 0 3.774-.519 5.351-2.596"/>
	<rect width="153.491" height="2.895" x="132.49" y="112.149" stroke="#A2A9B1" rx=".5"/>
	<defs>
		<filter id="filter0_d" width="69.65" height="93.558" x="8.396" y="26.572" color-interpolation-filters="sRGB" filterUnits="userSpaceOnUse">
			<feFlood flood-opacity="0" result="BackgroundImageFix"/>
			<feColorMatrix in="SourceAlpha" values="0 0 0 0 0 0 0 0 0 0 0 0 0 0 0 0 0 0 127 0"/>
			<feOffset/>
			<feGaussianBlur stdDeviation=".995"/>
			<feColorMatrix values="0 0 0 0 0.961 0 0 0 0 0.961 0 0 0 0 0.961 0 0 0 1 0"/>
			<feBlend in2="BackgroundImageFix" result="effect1_dropShadow"/>
			<feBlend in="SourceGraphic" in2="effect1_dropShadow" result="shape"/>
		</filter>
	</defs>
</svg>
