<svg width="34" height="24" viewBox="0 0 34 24" fill="none" xmlns="http://www.w3.org/2000/svg">
<rect width="34" height="24" fill="white"/>
<path d="M22 2H4C2.9 2 2 2.9 2 4V16C2 17.1 2.9 18 4 18H11V20H9V22H17V20H15V18H22C23.1 18 24 17.1 24 16V4C24 2.9 23.1 2 22 2ZM22 16H4V4H22V16Z" fill="black"/>
<g clip-path="url(#clip0)">
<path d="M14.5 18.75V19.75H15.5H17.5V21.75V22.75H18.5H27.5H28.5V21.75V19.75H30.5H31.5V18.75V14.25C31.5 12.5368 30.1801 11.1368 28.5 11.0094V8.25V7.25H27.5H18.5H17.5V8.25V11.0094C15.8199 11.1368 14.5 12.5368 14.5 14.25V18.75ZM25 19.25H21V17.5H25V19.25ZM28.25 14C28.3898 14 28.5 14.1102 28.5 14.25C28.5 14.3898 28.3898 14.5 28.25 14.5C28.1102 14.5 28 14.3898 28 14.25C28 14.1102 28.1102 14 28.25 14Z" fill="black" stroke="white" stroke-width="2"/>
</g>
<defs>
<clipPath id="clip0">
<rect width="18" height="18" fill="white" transform="translate(14 6)"/>
</clipPath>
</defs>
</svg>
